<?xml version="1.0" standalone="no"?>
<!DOCTYPE svg PUBLIC "-//W3C//DTD SVG 20010904//EN"
 "http://www.w3.org/TR/2001/REC-SVG-20010904/DTD/svg10.dtd">
<svg version="1.0" xmlns="http://www.w3.org/2000/svg"
 width="600.000000pt" height="600.000000pt" viewBox="0 0 600.000000 600.000000"
 preserveAspectRatio="xMidYMid meet">
<metadata>
Created by potrace 1.11, written by Peter Selinger 2001-2013
</metadata>
<g transform="translate(0.000000,600.000000) scale(0.100000,-0.100000)"
fill="#000000" stroke="none">
<path d="M2798 5995 c-1 -1 -41 -6 -87 -9 -47 -4 -87 -9 -90 -11 -3 -1 -37 -6
-76 -10 -38 -3 -72 -8 -75 -10 -4 -2 -22 -7 -41 -10 -130 -22 -426 -108 -534
-155 -175 -76 -244 -109 -337 -160 -774 -426 -1334 -1186 -1498 -2035 -6 -27
-12 -61 -15 -75 -3 -14 -7 -43 -10 -65 -3 -22 -8 -56 -10 -75 -16 -116 -20
-188 -19 -385 0 -237 4 -295 34 -480 29 -179 98 -445 139 -540 5 -11 17 -40
26 -65 24 -64 40 -100 102 -230 211 -437 554 -841 959 -1127 437 -309 944
-495 1469 -541 154 -13 615 -5 644 12 3 2 35 7 70 10 36 4 67 8 70 10 3 2 28
7 55 10 27 4 52 9 56 11 4 2 17 6 31 8 120 23 368 104 529 173 464 201 892
536 1193 934 32 41 62 81 68 88 34 41 162 256 220 367 146 286 261 644 294
914 4 30 9 63 11 75 25 130 25 648 -1 771 -3 11 -6 34 -9 50 -13 91 -21 130
-43 225 -13 58 -26 114 -28 124 -5 24 -63 203 -75 231 -4 11 -18 47 -31 80
-62 165 -196 417 -311 586 -239 351 -595 684 -968 903 -77 45 -341 172 -426
204 -125 48 -323 108 -414 127 -107 22 -238 45 -290 50 -36 4 -74 9 -85 12
-23 5 -491 13 -497 8z"/>
</g>
</svg>
